<svg xmlns="http://www.w3.org/2000/svg" width="24" height="17" viewBox="0 0 24 17">
    <g fill="none" fill-rule="evenodd" opacity=".5">
        <g fill-rule="nonzero">
            <g>
                <g>
                    <path fill="#52AE69" d="M23.4 1.587c-1.369.625-2.861.932-4.365.896C15.725 2.483 9.517 0 6.62 0 4.975.005 3.35.389 1.877 1.12c-.138.072-.224.215-.222.37v10.623c0 .228.185.413.414.413.065 0 .128-.015.186-.044 1.369-.626 2.862-.932 4.366-.896 3.31 0 9.517 2.483 12.414 2.483 1.646-.005 3.269-.389 4.743-1.121.137-.07.223-.212.222-.367V1.956c0-.228-.185-.413-.414-.413-.064 0-.128.015-.186.044z" transform="translate(-677 -190) translate(661 178) translate(16 12)"/>
                    <path fill="#D6F5DF" d="M21.745 4.07c-1.369.625-2.862.932-4.366.895-3.31 0-9.517-2.482-12.414-2.482-1.646.005-3.269.388-4.743 1.12-.138.072-.224.214-.222.37v10.622c0 .229.185.414.414.414.064 0 .128-.015.186-.044 1.369-.626 2.861-.932 4.365-.896 3.31 0 9.518 2.483 12.414 2.483 1.647-.005 3.27-.389 4.744-1.121.137-.071.223-.213.222-.367V4.44c0-.228-.185-.414-.414-.414-.065 0-.128.016-.186.045zM11.172 13.24c-2.056 0-3.724-1.667-3.724-3.724 0-2.057 1.668-3.724 3.724-3.724 2.057 0 3.725 1.667 3.725 3.724 0 2.057-1.668 3.724-3.725 3.724z" transform="translate(-677 -190) translate(661 178) translate(16 12)"/>
                    <path fill="#52AE69" d="M14.897 9.517c0 2.057-1.668 3.724-3.725 3.724-2.056 0-3.724-1.667-3.724-3.724 0-2.057 1.668-3.724 3.724-3.724 2.057 0 3.725 1.667 3.725 3.724z" transform="translate(-677 -190) translate(661 178) translate(16 12)"/>
                    <path fill="#D6F5DF" d="M11.172 9.103c-.228 0-.413-.185-.413-.413 0-.229.185-.414.413-.414.229 0 .414.185.414.414 0 .228.185.413.414.413.229 0 .414-.185.414-.413-.002-.525-.334-.991-.828-1.166v-.076c0-.228-.185-.414-.414-.414-.228 0-.413.186-.413.414v.076c-.646.228-.984.935-.757 1.58.175.496.644.828 1.17.827.229 0 .414.185.414.414 0 .228-.185.414-.414.414-.228 0-.413-.186-.413-.414 0-.229-.186-.414-.414-.414-.229 0-.414.185-.414.414.002.524.333.99.828 1.165v.076c0 .229.185.414.413.414.229 0 .414-.185.414-.414v-.076c.645-.227.984-.934.757-1.58-.175-.496-.644-.828-1.17-.827z" transform="translate(-677 -190) translate(661 178) translate(16 12)"/>
                    <g fill="#52AE69">
                        <path d="M12.832.837h-.827c-.229 0-.414-.185-.414-.413 0-.229.185-.414.414-.414h.827c.229 0 .414.185.414.414 0 .228-.185.413-.414.413zM1.246.837H.42C.19.837.005.652.005.424.005.195.19.01.419.01h.827c.229 0 .414.185.414.414 0 .228-.185.413-.414.413z" transform="translate(-677 -190) translate(661 178) translate(16 12) translate(4.547 9.094)"/>
                    </g>
                </g>
            </g>
        </g>
    </g>
</svg>
