<svg xmlns="http://www.w3.org/2000/svg" width="19" height="19" viewBox="0 0 19 19">
    <g fill="none" fill-rule="evenodd">
        <g fill="#66696E" fill-rule="nonzero">
            <g>
                <g>
                    <path d="M257 69.36v-1.72c1.147-.12 2.203-.487 3.17-1.1.967-.613 1.757-1.403 2.37-2.37.613-.967.98-2.023 1.1-3.17h1.72v-1.64h-1.72c-.12-1.147-.487-2.203-1.1-3.17-.613-.967-1.403-1.757-2.37-2.37-.967-.613-2.023-.98-3.17-1.1V51h-1.64v1.72c-1.147.12-2.2.487-3.16 1.1-.96.613-1.747 1.403-2.36 2.37-.613.967-.987 2.023-1.12 3.17H247V61h1.72c.133 1.147.507 2.203 1.12 3.17.613.967 1.4 1.757 2.36 2.37.96.613 2.013.98 3.16 1.1v1.72H257zm-.82-3.36c-1.067 0-2.047-.26-2.94-.78-.88-.52-1.58-1.22-2.1-2.1-.52-.893-.78-1.873-.78-2.94s.26-2.047.78-2.94c.52-.88 1.22-1.58 2.1-2.1.893-.52 1.873-.78 2.94-.78s2.047.26 2.94.78c.88.52 1.58 1.22 2.1 2.1.52.893.78 1.873.78 2.94s-.26 2.047-.78 2.94c-.52.88-1.22 1.58-2.1 2.1-.893.52-1.873.78-2.94.78zm0-2.5c.6 0 1.153-.15 1.66-.45.507-.3.91-.703 1.21-1.21.3-.507.45-1.06.45-1.66 0-.6-.15-1.153-.45-1.66-.3-.507-.703-.91-1.21-1.21-.507-.3-1.06-.45-1.66-.45-.6 0-1.153.15-1.66.45-.507.3-.91.703-1.21 1.21-.3.507-.45 1.06-.45 1.66 0 .6.15 1.153.45 1.66.3.507.703.91 1.21 1.21.507.3 1.06.45 1.66.45z" transform="translate(-827 -330) translate(540 112) translate(40 167)"/>
                </g>
            </g>
        </g>
    </g>
</svg>
